<svg xmlns="http://www.w3.org/2000/svg" viewBox="0 0 180.86 180.86"><defs><style>.cls-1{fill:#f2eadf;}.cls-2{fill:#73b45a;}.cls-3{fill:#756d53;}.cls-4{fill:#9dcb5b;}.cls-5{fill:#d0c2b4;stroke:#756d53;stroke-miterlimit:10;stroke-width:4px;}.cls-6{fill:#706652;}</style></defs><title>Asset 2</title><g id="Layer_2" data-name="Layer 2"><g id="Layer_1-2" data-name="Layer 1"><rect class="cls-1" width="180.86" height="180.86"/><rect class="cls-2" x="55.11" y="24.01" width="70" height="70"/><rect class="cls-3" x="105.11" y="74.01" width="10" height="10"/><rect class="cls-3" x="65.11" y="64.01" width="10" height="10" transform="translate(140.21 138.02) rotate(-180)"/><rect class="cls-3" x="85.11" y="44.01" width="10" height="10"/><rect class="cls-4" x="105.11" y="24.01" width="10" height="10"/><rect class="cls-4" x="115.11" y="34.01" width="10" height="10"/><rect class="cls-4" x="105.11" y="34.01" width="10" height="10"/><rect class="cls-4" x="95.11" y="24.01" width="10" height="10"/><rect class="cls-4" x="85.11" y="24.01" width="10" height="10"/><rect class="cls-1" x="53.38" y="84.01" width="11.72" height="10.6"/><rect class="cls-1" x="115.11" y="84.01" width="12.37" height="12.37"/><line class="cls-5" x1="90.11" y1="53.43" x2="90.11" y2="113.43"/><line class="cls-5" x1="96.11" y1="78.43" x2="96.11" y2="113.43"/><line class="cls-5" x1="84.11" y1="68.43" x2="84.11" y2="113.43"/><line class="cls-5" x1="109.11" y1="79.01" x2="94.11" y2="79.01"/><line class="cls-5" x1="71.11" y1="69.01" x2="86.11" y2="69.01"/><rect class="cls-1" x="52.34" y="22.3" width="11.72" height="11.72"/><rect class="cls-1" x="114.06" y="22.3" width="11.72" height="11.72"/><path class="cls-6" d="M33,140.11v-2.2H27.53v4.39h8.13a3,3,0,0,1,1.9.62,2,2,0,0,1,.77,1.55v8.75a1.89,1.89,0,0,1-.77,1.54,2.89,2.89,0,0,1-1.9.66H24.85a2.8,2.8,0,0,1-1.9-.66,1.87,1.87,0,0,1-.81-1.54v-4.36h5.39v2.19H33v-4.39h-8.1A2.88,2.88,0,0,1,23,146a2,2,0,0,1-.81-1.57v-8.76a1.94,1.94,0,0,1,.81-1.54,2.88,2.88,0,0,1,1.9-.62H35.66a3,3,0,0,1,1.9.62,2,2,0,0,1,.77,1.54v4.4Z"/><path class="cls-6" d="M60,155.42H54.56v-8.76H49.14v8.76H43.75V135.71a1.94,1.94,0,0,1,.81-1.54,2.9,2.9,0,0,1,1.91-.62h10.8a3,3,0,0,1,1.91.62,2,2,0,0,1,.77,1.54ZM54.56,142.3v-4.39H49.14v4.39Z"/><path class="cls-6" d="M79.56,137.91H74.18v17.51H68.75V137.91H63.37v-4.36H79.56Z"/><path class="cls-6" d="M98.17,137.91H92.79v17.51H87.37V137.91H82v-4.36H98.17Z"/><path class="cls-6" d="M101.3,133.55h5.38v21.87H101.3V133.55Z"/><path class="cls-6" d="M128.3,151.05v4.37H112.1V133.55h5.39v17.5Z"/><path class="cls-6" d="M131.72,133.55h5.38v21.87h-5.38V133.55Z"/><path class="cls-6" d="M158.72,155.42h-5.39v-8.76h-5.42v8.76h-5.39V135.71a1.94,1.94,0,0,1,.81-1.54,2.9,2.9,0,0,1,1.91-.62H156a3,3,0,0,1,1.91.62,2,2,0,0,1,.77,1.54Zm-5.39-13.12v-4.39h-5.42v4.39Z"/></g></g></svg>