<?xml version="1.0" encoding="UTF-8" standalone="no"?>
<!-- Created with Inkscape (http://www.inkscape.org/) -->

<svg
   xmlns:dc="http://purl.org/dc/elements/1.1/"
   xmlns:cc="http://creativecommons.org/ns#"
   xmlns:rdf="http://www.w3.org/1999/02/22-rdf-syntax-ns#"
   xmlns:svg="http://www.w3.org/2000/svg"
   xmlns="http://www.w3.org/2000/svg"
   xmlns:sodipodi="http://sodipodi.sourceforge.net/DTD/sodipodi-0.dtd"
   xmlns:inkscape="http://www.inkscape.org/namespaces/inkscape"
   width="6.3499999mm"
   height="6.3499999mm"
   viewBox="0 0 6.3499999 6.3499999"
   version="1.1"
   id="svg8"
   inkscape:version="0.92.4 (5da689c313, 2019-01-14)"
   sodipodi:docname="leaf_drop.svg">
  <defs
     id="defs2" />
  <sodipodi:namedview
     id="base"
     pagecolor="#ffffff"
     bordercolor="#666666"
     borderopacity="1.0"
     inkscape:pageopacity="0.0"
     inkscape:pageshadow="2"
     inkscape:zoom="22.4"
     inkscape:cx="12.273294"
     inkscape:cy="10.099917"
     inkscape:document-units="mm"
     inkscape:current-layer="g4524"
     showgrid="false"
     inkscape:window-width="1920"
     inkscape:window-height="1017"
     inkscape:window-x="-8"
     inkscape:window-y="-8"
     inkscape:window-maximized="1" />
  <metadata
     id="metadata5">
    <rdf:RDF>
      <cc:Work
         rdf:about="">
        <dc:format>image/svg+xml</dc:format>
        <dc:type
           rdf:resource="http://purl.org/dc/dcmitype/StillImage" />
        <dc:title></dc:title>
      </cc:Work>
    </rdf:RDF>
  </metadata>
  <g
     inkscape:label="Layer 1"
     inkscape:groupmode="layer"
     id="layer1"
     transform="translate(-78.467857,-142.63452)">
    <g
       id="g4541"
       transform="matrix(0.26458333,0,0,0.26458333,78.467857,142.63452)">
      <g
         id="g4520">
        <rect
           id="rect4518"
           width="24"
           height="24"
           x="0"
           y="0"
           style="fill:none" />
      </g>
      <g
         id="g4526">
        <g
           id="g4524">
          <path
             d="m 316.57227,543.0918 c 0,0 -10.47118,0.56883 -13.95118,4.04882 -2.73,2.73 -2.72953,7.15086 -0.0195,9.88086 1.47,-3.4 4.08938,-6.23968 7.35938,-7.92968 -2.77,2.34 -4.70867,5.60836 -5.38867,9.31836 1.40896,0.66654 2.9895,0.82334 4.48828,0.5 -0.49689,-0.73582 -0.79297,-1.62413 -0.79297,-2.58594 0,-3.21301 4.48047,-8.3086 4.48047,-8.3086 0,0 1.30032,1.49781 2.50195,3.3711 1.08252,-4.00265 1.32227,-8.29492 1.32227,-8.29492 z"
             transform="translate(-296.57143,-539.09111)"
             id="path4522"
             inkscape:connector-curvature="0"
             style="fill:#ffffff;fill-opacity:1" />
          <path
             id="path4522-9-4"
             d="m 12.931244,17.096223 c 0,1.922335 1.457788,3.47852 3.251996,3.48556 0.632239,-0.06979 0.635469,-0.07146 1.108181,-0.204204 1.263204,-0.482342 2.170196,-1.76743 2.170196,-3.281356 0,-2.450462 -3.265182,-6.337392 -3.265182,-6.337392 0,0 -3.265191,3.88693 -3.265191,6.337392 z"
             inkscape:connector-curvature="0"
             sodipodi:nodetypes="sccscs"
             style="fill:none;stroke:#ffffff;stroke-width:1.25639129;stroke-miterlimit:4;stroke-dasharray:none;stroke-opacity:1" />
        </g>
      </g>
    </g>
  </g>
</svg>
