<?xml version="1.0" encoding="UTF-8" standalone="no"?>
<svg
   xmlns:dc="http://purl.org/dc/elements/1.1/"
   xmlns:cc="http://creativecommons.org/ns#"
   xmlns:rdf="http://www.w3.org/1999/02/22-rdf-syntax-ns#"
   xmlns:svg="http://www.w3.org/2000/svg"
   xmlns="http://www.w3.org/2000/svg"
   xmlns:sodipodi="http://sodipodi.sourceforge.net/DTD/sodipodi-0.dtd"
   xmlns:inkscape="http://www.inkscape.org/namespaces/inkscape"
   height="24"
   viewBox="0 0 24 24"
   width="24"
   version="1.1"
   id="svg5736"
   sodipodi:docname="waves.svg"
   inkscape:version="0.92.4 (5da689c313, 2019-01-14)">
  <metadata
     id="metadata5742">
    <rdf:RDF>
      <cc:Work
         rdf:about="">
        <dc:format>image/svg+xml</dc:format>
        <dc:type
           rdf:resource="http://purl.org/dc/dcmitype/StillImage" />
      </cc:Work>
    </rdf:RDF>
  </metadata>
  <defs
     id="defs5740" />
  <sodipodi:namedview
     pagecolor="#ffffff"
     bordercolor="#666666"
     borderopacity="1"
     objecttolerance="10"
     gridtolerance="10"
     guidetolerance="10"
     inkscape:pageopacity="0"
     inkscape:pageshadow="2"
     inkscape:window-width="1920"
     inkscape:window-height="1017"
     id="namedview5738"
     showgrid="false"
     inkscape:zoom="25.485307"
     inkscape:cx="9.2871984"
     inkscape:cy="10.901397"
     inkscape:window-x="-8"
     inkscape:window-y="-8"
     inkscape:window-maximized="1"
     inkscape:current-layer="svg5736" />
  <path
     d="M 7 3.6601562 C 5.62 3.6601562 4.8007812 4.0809375 4.0507812 4.4609375 C 3.4007813 4.7909375 2.88 5.0605469 2 5.0605469 L 2 6.9902344 C 3.35 6.9902344 4.1992188 6.5594531 4.9492188 6.1894531 C 5.5992188 5.8594531 6.12 5.5898438 7 5.5898438 C 7.88 5.5898438 8.4007813 5.8394531 9.0507812 6.1894531 C 9.8007812 6.5694531 10.62 6.9902344 12 6.9902344 C 13.38 6.9902344 14.199219 6.5594531 14.949219 6.1894531 C 15.599219 5.8694531 16.13 5.5898438 17 5.5898438 C 17.9 5.5898438 18.400781 5.8394531 19.050781 6.1894531 C 19.800781 6.5694531 20.63 6.9902344 22 6.9902344 L 22 5.0390625 C 21.1 5.0390625 20.599219 4.7909375 19.949219 4.4609375 C 19.199219 4.0809375 18.37 3.6601563 17 3.6601562 C 15.63 3.6601562 14.800781 4.0809375 14.050781 4.4609375 C 13.400781 4.7809375 12.87 5.0605469 12 5.0605469 C 11.1 5.0605469 10.599219 4.8109375 9.9492188 4.4609375 C 9.1992188 4.0909375 8.38 3.6601563 7 3.6601562 z M 7 8.0898438 C 5.62 8.0898438 4.8007812 8.520625 4.0507812 8.890625 C 3.4007813 9.240625 2.9 9.4902344 2 9.4902344 L 2 11.439453 C 3.35 11.439453 4.1992188 11.010625 4.9492188 10.640625 C 5.5992188 10.320625 6.13 10.039062 7 10.039062 C 7.87 10.039062 8.4007812 10.290625 9.0507812 10.640625 C 9.8007812 11.020625 10.62 11.439453 12 11.439453 C 13.126381 11.439453 13.874812 11.154149 14.521484 10.847656 C 15.209431 9.7783943 15.938336 8.8160762 16.501953 8.1289062 C 15.44367 8.2213454 14.699908 8.5703891 14.050781 8.890625 C 13.400781 9.240625 12.9 9.4902344 12 9.4902344 C 11.1 9.4902344 10.599219 9.240625 9.9492188 8.890625 C 9.1992188 8.510625 8.38 8.0898438 7 8.0898438 z M 18.412109 8.2792969 C 19.033031 9.0446754 19.823119 10.086151 20.529297 11.238281 C 20.950843 11.354071 21.419587 11.439453 22 11.439453 L 22 9.4902344 C 21.1 9.4902344 20.599219 9.240625 19.949219 8.890625 C 19.504645 8.6653743 19.010269 8.4368484 18.412109 8.2792969 z M 7 12.539062 C 5.62 12.539062 4.8007812 12.969844 4.0507812 13.339844 C 3.4007813 13.659844 2.88 13.939453 2 13.939453 L 2 15.890625 C 3.35 15.890625 4.1992188 15.459844 4.9492188 15.089844 C 5.5992188 14.739844 6.1 14.490234 7 14.490234 C 7.9 14.490234 8.4007813 14.739844 9.0507812 15.089844 C 9.8007812 15.469844 10.62 15.890625 12 15.890625 C 12.271692 15.890625 12.506263 15.861626 12.738281 15.832031 C 12.725571 15.694549 12.695312 15.562607 12.695312 15.421875 C 12.695312 14.914457 12.821453 14.356928 13.017578 13.783203 C 12.71861 13.87691 12.396766 13.939453 12 13.939453 C 11.1 13.939453 10.599219 13.689844 9.9492188 13.339844 C 9.1992188 12.959844 8.38 12.539062 7 12.539062 z M 21.826172 13.925781 C 21.898184 14.150605 21.955961 14.371505 22 14.587891 L 22 13.939453 C 21.935794 13.939453 21.886506 13.928271 21.826172 13.925781 z M 7 16.990234 C 5.62 16.990234 4.8007812 17.409062 4.0507812 17.789062 C 3.4007813 18.119062 2.88 18.390625 2 18.390625 L 2 20.339844 C 3.35 20.339844 4.1992188 19.919063 4.9492188 19.539062 C 5.5992188 19.209063 6.12 18.939453 7 18.939453 C 7.88 18.939453 8.4007813 19.189062 9.0507812 19.539062 C 9.8007812 19.919062 10.62 20.339844 12 20.339844 C 13.38 20.339844 14.199219 19.919063 14.949219 19.539062 C 15.025931 19.500116 15.097749 19.476383 15.171875 19.439453 C 14.519081 19.094086 13.951681 18.616807 13.53125 18.023438 C 13.082966 18.226999 12.630269 18.390625 12 18.390625 C 11.1 18.390625 10.599219 18.139063 9.9492188 17.789062 C 9.1992188 17.409063 8.38 16.990234 7 16.990234 z M 21.066406 18.265625 C 20.582248 18.857431 19.954231 19.325387 19.230469 19.626953 C 19.936692 19.980919 20.73528 20.339844 22 20.339844 L 22 18.390625 C 21.631838 18.390625 21.338347 18.339026 21.066406 18.265625 z "
     id="path5734"
     style="fill:#ffffff;fill-opacity:1" />
  <path
     id="path4522-9-4-1"
     d="m 14.100647,15.2961 c 0,1.922335 1.457788,3.478519 3.251996,3.485559 0.632239,-0.06979 0.635469,-0.07146 1.108181,-0.204204 1.263204,-0.482342 2.170196,-1.767429 2.170196,-3.281355 0,-2.450462 -3.265182,-6.3373928 -3.265182,-6.3373928 0,0 -3.265191,3.8869308 -3.265191,6.3373928 z"
     inkscape:connector-curvature="0"
     sodipodi:nodetypes="sccscs"
     style="fill:none;stroke:#ffffff;stroke-width:1.25639129;stroke-miterlimit:4;stroke-dasharray:none;stroke-opacity:1" />
</svg>
